<?xml version="1.0" standalone="no"?><!DOCTYPE svg PUBLIC "-//W3C//DTD SVG 1.1//EN" "http://www.w3.org/Graphics/SVG/1.1/DTD/svg11.dtd"><svg t="1748510732127" class="icon" viewBox="0 0 1024 1024" version="1.1" xmlns="http://www.w3.org/2000/svg" p-id="4756" xmlns:xlink="http://www.w3.org/1999/xlink" width="200" height="200"><path d="M512 384a128 128 0 1 0 128 128 128 128 0 0 0-128-128z m0 204.8a76.8 76.8 0 1 1 76.8-76.8 76.8 76.8 0 0 1-76.8 76.8z" fill="#ffffff" p-id="4757"></path><path d="M844.8 716.8a127.4368 127.4368 0 0 0-70.6048 21.248l-64-64A256 256 0 0 0 716.8 358.4l58.624-58.624a102.7584 102.7584 0 1 0-37.4784-34.9184l-55.808 55.808A255.0272 255.0272 0 0 0 512 256a273.92 273.92 0 0 0-163.84 56.32l-12.6464-12.6464-143.36-143.7184a76.8 76.8 0 1 0-36.1472 36.1472L301.7728 337.92c4.5568 4.5568 10.24 10.24 10.5472 10.24a273.6128 273.6128 0 0 0-56.32 163.84 254.9248 254.9248 0 0 0 62.5152 167.5264l-51.9168 51.9168a89.4976 89.4976 0 1 0 33.1776 39.2704l55.9616-56.0128a256 256 0 0 0 318.3104-4.5056l64 64A128 128 0 1 0 844.8 716.8z m-20.48-558.08a51.2 51.2 0 0 1 51.2 51.2 49.5104 49.5104 0 0 1-51.2 51.2 50.4832 50.4832 0 0 1-51.2-51.2 51.2 51.2 0 0 1 51.2-51.2zM120.32 148.48a28.1088 28.1088 0 1 1 28.16-28.16 28.1088 28.1088 0 0 1-28.16 28.16z m97.28 696.32a38.4 38.4 0 1 1 38.4-38.4 38.4 38.4 0 0 1-38.4 38.4z m294.4-128a204.8 204.8 0 0 1 0-409.6c113.1008 0 197.4272 99.4816 197.4272 207.2064S625.152 716.8 512 716.8z m332.8 204.8a76.8 76.8 0 0 1-60.2624-124.3136l12.7488-12.7488A76.8 76.8 0 1 1 844.8 921.6z" fill="#ffffff" p-id="4758"></path></svg>