<?xml version="1.0" standalone="no"?><!DOCTYPE svg PUBLIC "-//W3C//DTD SVG 1.1//EN" "http://www.w3.org/Graphics/SVG/1.1/DTD/svg11.dtd"><svg t="1748396055485" class="icon" viewBox="0 0 1024 1024" version="1.1" xmlns="http://www.w3.org/2000/svg" p-id="8840" xmlns:xlink="http://www.w3.org/1999/xlink" width="200" height="200"><path d="M42.078 533.508c27.38-218.311 201.186-393.684 413.97-418.318 285.833-33.108 527.95 195.883 527.95 483.011 0.244 105.262-33.062 222.194-94.963 306.73-8.132 10.852-20.845 17.177-34.293 17.068H167.374c-13.492 0.105-26.244-6.24-34.405-17.125-71.151-97.18-107.787-237.01-90.891-371.366z m772.96-181.078c-55.69-74.23-136.071-125.463-226.222-144.186C341.46 158.41 123.992 352.712 123.992 598.2c0 78.592 22.694 169.832 65.24 235.37h643.483c93.108-143.456 85.984-345.356-17.676-481.14zM553.966 200.108v88.986c0 29.266-14.33 43.9-42.936 43.9-28.717 0-43.047-14.69-43.047-43.9v-88.986c0-29.267 14.33-43.9 42.992-43.9 28.661 0 42.991 14.633 42.991 43.9z m139.46 148.028l60.778-62.545c8.01-8.261 18.96-12.915 30.39-12.915s22.381 4.654 30.391 12.915c16.826 17.363 16.826 45.181 0 62.544l-60.78 62.545c-8.017 8.247-18.965 12.89-30.39 12.89-11.424 0-22.372-4.643-30.39-12.89-16.826-17.363-16.826-45.182 0-62.544z m247.523 250.178c0 29.379-14.386 44.07-43.103 44.07h-85.76c-28.774 0-43.104-14.691-43.104-44.07v-0.226c0-29.38 14.33-44.07 43.103-44.07h85.76c28.718 0 43.104 14.69 43.104 44.07v0.226zM298.133 423.57c-11.424 0-22.372-4.643-30.39-12.89l-60.78-62.544c-16.826-17.363-16.826-45.182 0-62.545 8.01-8.26 18.96-12.914 30.39-12.914s22.38 4.653 30.39 12.914l60.78 62.544c16.827 17.362 16.827 45.182 0 62.545-8.018 8.247-18.965 12.89-30.39 12.89zM80.998 598.088c0-29.38 14.387-44.07 43.16-44.07h85.706c28.772 0 43.158 14.69 43.158 44.07v0.282c0 29.38-14.386 44.07-43.158 44.07h-85.706c-28.773 0-43.16-14.691-43.16-44.07v-0.282z m379.23 74.778c4.74 19.38 18.066 35.312 36.076 43.11 17.956 7.796 38.476 6.44 55.372-3.56l6.69-3.955c16.819-10.062 28.07-27.469 30.45-47.11 2.381-19.642-4.378-39.29-18.293-53.176L404.187 442.689l56.04 230.177z" fill="#ffffff" p-id="8841"></path></svg>