<?xml version="1.0" standalone="no"?><!DOCTYPE svg PUBLIC "-//W3C//DTD SVG 1.1//EN" "http://www.w3.org/Graphics/SVG/1.1/DTD/svg11.dtd"><svg t="1748396065459" class="icon" viewBox="0 0 1024 1024" version="1.1" xmlns="http://www.w3.org/2000/svg" p-id="9046" xmlns:xlink="http://www.w3.org/1999/xlink" width="200" height="200"><path d="M896 768c-34.133333 0-64 12.8-87.466667 34.133333l-32-25.6C812.8 725.333333 832 663.466667 832 597.333333c0-168.533333-132.266667-307.2-298.666667-317.866666V256c59.733333-10.666667 106.666667-61.866667 106.666667-125.866667 0-70.4-57.6-128-128-128s-128 57.6-128 128c0 64 46.933333 115.2 106.666667 125.866667v23.466667c-166.4 10.666667-298.666667 149.333333-298.666667 317.866666 0 66.133333 19.2 128 55.466667 179.2l-32 25.6C192 780.8 162.133333 768 128 768c-70.4 0-128 57.6-128 128s57.6 128 128 128 128-57.6 128-128c0-21.333333-6.4-42.666667-14.933333-59.733333l32-25.6c57.6 66.133333 142.933333 106.666667 238.933333 106.666666 96 0 179.2-42.666667 238.933333-106.666666l32 25.6c-8.533333 17.066667-14.933333 38.4-14.933333 59.733333 0 70.4 57.6 128 128 128s128-57.6 128-128-57.6-128-128-128z m-386.133333 2.133333c-93.866667 0-172.8-76.8-172.8-172.8h-23.466667c-14.933333 0-21.333333-10.666667-12.8-21.333333l51.2-49.066667c10.666667-10.666667 17.066667-10.666667 25.6 0l51.2 49.066667c6.4 12.8 2.133333 21.333333-12.8 21.333333h-23.466667c0 64 51.2 119.466667 117.333334 119.466667 32 0 61.866667-12.8 83.2-34.133333l38.4 36.266666c-29.866667 32-72.533333 51.2-121.6 51.2z m136.533333-102.4L595.2 618.666667c-6.4-12.8-2.133333-21.333333 12.8-21.333334h23.466667c0-64-51.2-119.466667-117.333334-119.466666-32 0-61.866667 12.8-83.2 34.133333l-38.4-36.266667c32-32 74.666667-51.2 121.6-51.2 93.866667 0 170.666667 76.8 172.8 172.8h23.466667c14.933333 0 21.333333 10.666667 12.8 21.333334l-51.2 49.066666c-10.666667 10.666667-17.066667 10.666667-25.6 0z" fill="#8a8a8a" p-id="9047"></path></svg>