<?xml version="1.0" standalone="no"?><!DOCTYPE svg PUBLIC "-//W3C//DTD SVG 1.1//EN" "http://www.w3.org/Graphics/SVG/1.1/DTD/svg11.dtd"><svg t="1748396163735" class="icon" viewBox="0 0 1024 1024" version="1.1" xmlns="http://www.w3.org/2000/svg" p-id="9300" xmlns:xlink="http://www.w3.org/1999/xlink" width="200" height="200"><path d="M38.570667 529.578667c27.989333-214.641778 205.710222-387.072 423.253333-411.306667 292.181333-32.540444 539.704889 192.568889 539.704889 474.908444 0.284444 103.537778-33.792 218.453333-97.052445 301.624889a43.975111 43.975111 0 0 1-35.100444 16.782223H166.684444a44.145778 44.145778 0 0 1-35.157333-16.839112C58.766222 799.175111 21.333333 661.617778 38.570667 529.578667z m790.186666-178.062223a389.859556 389.859556 0 0 0-231.196444-141.767111c-252.928-48.981333-475.249778 142.051556-475.249778 383.431111 0 77.312 23.210667 167.025778 66.730667 231.424h657.863111c95.175111-141.084444 87.893333-339.569778-18.090667-473.088z m-266.808889-149.731555v87.495111c0 28.728889-14.677333 43.121778-43.918222 43.121778-29.354667 0-44.032-14.449778-44.032-43.121778V201.784889c0-28.785778 14.677333-43.235556 43.975111-43.235556s43.918222 14.449778 43.918223 43.235556z m142.506667 145.521778l62.179556-61.496889a44.145778 44.145778 0 0 1 62.122666 0c17.180444 17.066667 17.180444 44.430222 0 61.496889l-62.122666 61.496889a44.202667 44.202667 0 0 1-62.179556 0 43.064889 43.064889 0 0 1 0-61.44z m253.098667 245.987555c0 28.899556-14.734222 43.349333-44.088889 43.349334h-87.665778c-29.411556 0-44.088889-14.449778-44.088889-43.349334v-0.227555c0-28.899556 14.677333-43.292444 44.088889-43.292445h87.608889c29.411556 0 44.145778 14.392889 44.145778 43.292445v0.227555zM300.373333 421.546667a44.202667 44.202667 0 0 1-31.061333-12.686223l-62.122667-61.44a43.121778 43.121778 0 0 1 0-61.553777 44.145778 44.145778 0 0 1 62.122667 0l62.122667 61.496889c17.180444 17.066667 17.180444 44.430222 0 61.496888a44.202667 44.202667 0 0 1-31.061334 12.686223z m-221.980444 171.576889c0-28.899556 14.677333-43.292444 44.088889-43.292445h87.608889c29.468444 0 44.145778 14.392889 44.145777 43.292445v0.284444c0 28.899556-14.677333 43.349333-44.088888 43.349333h-87.608889c-29.468444 0-44.145778-14.449778-44.145778-43.349333v-0.284444z m387.697778 73.557333c4.835556 19.057778 18.432 34.702222 36.864 42.382222 18.375111 7.68 39.367111 6.314667 56.604444-3.527111l6.826667-3.868444a61.724444 61.724444 0 0 0 12.401778-98.588445L408.860444 440.32l57.287112 226.304z" fill="#666666" p-id="9301"></path></svg>